<?xml version="1.0" standalone="no"?>
<!DOCTYPE svg PUBLIC "-//W3C//DTD SVG 20010904//EN"
 "http://www.w3.org/TR/2001/REC-SVG-20010904/DTD/svg10.dtd">
<svg version="1.0" xmlns="http://www.w3.org/2000/svg"
 width="1280.000000pt" height="803.000000pt" viewBox="0 0 1280.000000 803.000000"
 preserveAspectRatio="xMidYMid meet">
<metadata>
Created by potrace 1.15, written by Peter Selinger 2001-2017
</metadata>
<g transform="translate(0.000000,803.000000) scale(0.100000,-0.100000)"
fill="#000000" stroke="none">
<path d="M9748 7614 c-30 -38 -776 -994 -1658 -2124 -1719 -2203 -1709 -2190
-1715 -2190 -6 0 5 -14 -1715 2190 -1822 2335 -1653 2120 -1661 2120 -3 0 -54
-46 -114 -103 l-109 -103 28 -37 28 -37 -53 -47 c-237 -211 -472 -445 -601
-601 -195 -233 -254 -363 -377 -837 -96 -368 -149 -508 -242 -646 -93 -139
-206 -237 -494 -430 -216 -145 -350 -252 -426 -342 -54 -64 -273 -381 -285
-412 -3 -7 15 -41 39 -76 24 -35 411 -599 859 -1254 448 -655 852 -1244 898
-1311 79 -114 85 -120 106 -109 12 6 89 87 171 179 81 93 165 187 185 210 20
22 37 47 38 55 0 19 407 421 426 421 8 0 46 27 85 60 96 80 228 158 385 225
272 118 518 217 749 301 261 94 399 151 539 221 102 51 206 111 221 128 14 16
196 140 218 148 9 3 114 80 233 169 286 216 254 195 268 177 6 -8 68 -87 137
-174 69 -88 157 -201 197 -252 l71 -91 -556 -714 c-306 -392 -730 -935 -942
-1207 l-386 -494 110 -104 c60 -57 112 -102 116 -101 5 2 389 491 855 1088
465 597 881 1129 923 1182 41 54 78 94 82 90 6 -7 144 -182 1341 -1717 279
-358 520 -665 535 -683 l28 -33 108 109 108 109 -533 684 c-294 376 -726 930
-961 1231 -235 301 -428 551 -429 556 -3 7 192 263 385 504 l77 98 108 -83
c147 -115 386 -291 390 -288 2 1 50 -31 108 -71 179 -124 216 -147 319 -197
149 -74 266 -121 541 -222 471 -172 897 -356 1024 -442 25 -17 75 -55 111 -84
36 -29 71 -53 78 -53 17 0 442 -421 435 -432 -3 -5 34 -52 83 -106 49 -53 135
-150 190 -214 56 -64 104 -114 108 -110 3 4 10 0 15 -8 8 -13 11 -13 23 0 18
19 1867 2717 1873 2734 2 6 -32 67 -76 134 -215 329 -295 409 -645 642 -332
221 -448 336 -553 545 -58 116 -94 227 -173 525 -39 146 -84 306 -100 355 -70
212 -187 394 -396 615 -124 131 -329 331 -451 439 -78 71 -82 75 -67 95 37 52
39 47 -74 160 l-108 108 -55 -68z"/>
</g>
</svg>
